<?xml version="1.0" encoding="UTF-8"?>
<svg id="Layer_1" data-name="Layer 1" xmlns="http://www.w3.org/2000/svg" version="1.1" viewBox="0 0 1920 1080">
  <defs>
    <style>
      .cls-1 {
        fill: #000;
        stroke-width: 0px;
      }
    </style>
  </defs>
  <path class="cls-1" d="M1190.3,248.8c.3,2.8.9,5.3,1,7.9,1.1,36.5,1.9,72.9,3.3,109.4,1.9,50.4,4.5,100.9,6.5,151.3,1.1,29,1.4,58,2.5,86.9,1.7,46.1,3.7,92.2,5.5,138.3,1.3,33.8,2.3,67.6,3.5,101.4.6,17,1.3,34,1.9,50.9.3,8.4-.8,9.6-9.2,9.6-108.8,0-217.7.5-326.5-.2-19.3-.1-38.7-4.1-57.9-7.3-48.2-8.2-96.3-17-144.5-25.5-21-3.7-41.9-7.4-62.9-11.2-7-1.3-7.9-2.3-8.3-9.4-2.7-48.4-5.3-96.8-7.9-145.2-2.6-48.7-5.2-97.5-7.7-146.2-2.5-47.1-4.8-94.2-7.3-141.2-1.2-23.6-2.6-47.2-3.9-70.9-.5-10.4-.5-10.5,9.4-14,75.4-26.2,150.8-52.6,226.3-78.4,8.2-2.8,17.2-4.1,25.9-4.2,67.7-.8,135.3-1.1,203-1.5,47.2-.3,94.3-.6,141.5-.8,1.8,0,3.7.2,5.9.3ZM822.5,271.9c-10.8,3.4-20.5,6.3-30,9.6-61.8,21.4-123.5,42.8-185.2,64.3-10.1,3.5-11.5,5.4-11,16,1.2,27,2.7,53.9,4.1,80.9,2.4,47.2,4.7,94.5,7.1,141.7,1.6,30.6,3.4,61.2,5.1,91.8,1.9,33.9,3.8,67.9,5.7,101.8,1,18.3,2,36.6,2.9,54.9.3,6.4,3.5,10.7,9.7,12.4,4.5,1.2,9,2.4,13.6,3.2,53.7,9.9,107.3,19.8,161,29.7,12.3,2.2,24.5,4.7,36.9,6.3,7,.9,9.1-1.4,8.9-8.5-.5-13.7-1.2-27.3-1.9-40.9-2.2-46.4-4.4-92.8-6.5-139.3-2.1-45.8-3.9-91.5-6-137.3-2.6-56.7-5.3-113.5-8-170.2-1.5-30.5-2.9-60.9-4.5-91.3-.4-8-1-15.9-1.7-25.1ZM1175.3,266.8c-1.3-.2-2.1-.4-2.9-.4-14-.1-28-.4-41.9-.4-40.2.2-80.3.7-120.5,1-36,.3-72,.4-108,.7-17.2.1-34.3.5-51.5.6-4.9,0-8.2,1.9-9.6,6.9-2.9,10.7,2.3,17.1,14.2,17,14.3-.1,28.7-.5,43-.6,69-.4,138-.7,207-1,4.5,0,9,.4,13.4,1.2,18.2,3.6,30,19,30.8,39.7,1.7,44.9,3.3,89.9,5.1,134.8,2.2,56.1,4.7,112.2,7,168.3,2.3,55.4,4.6,110.8,6.8,166.3.4,10.2.9,20.3.2,30.5-1.4,22.3-16.2,36-38.6,36.1-18.5.1-37-.4-55.5-.4-54-.2-108-.3-162-.3-10.7,0-21.3.2-32,.4-4.1,0-8.1.6-9.8,5.2-3.8,10.3,0,16.2,10.8,16.4,2.7,0,5.3,0,8,0,24.8.2,49.7.5,74.5.6,73.7.3,147.3.5,221,.7,10.7,0,13-2.3,12.7-13-1.3-38.8-2.7-77.6-4.2-116.3-2.5-65.6-5-131.2-7.4-196.7-1.3-35.5-2.4-70.9-3.7-106.4-1.5-44.6-3.1-89.2-4.7-133.9-.7-18.9-1.4-37.9-2.1-56.9ZM1141.4,626.8c-5.3-.2-10-.7-14.6-.7-47.7,0-95.3.2-142.9.3-37.8,0-75.6.2-113.5.3-9.7,0-11.7,2-11.7,11.8,0,.8,0,1.7,0,2.5.8,15.8,1.6,31.6,2.3,47.4,2.4,49.9,4.7,99.8,7.1,149.7.3,7.1,1.7,8.4,8.8,8.5,28.5.3,57,.7,85.5.8,52.3.3,104.6.5,156.9.7,3.5,0,7-.2,10.5-.6,13.2-1.7,19.6-8.7,19.5-22,0-10.7-.6-21.3-1-32-1.7-41.4-3.3-82.9-5-124.3-.6-14-1.1-27.9-1.7-42.5ZM1133.8,415c-7,0-13.3,0-19.6,0-49.1.4-98.3.9-147.4,1.3-29.7.2-59.3.2-89,.4-7.7,0-15.3.4-23,.7-4.7.2-6.8,3-6.8,7.5,0,1.8,0,3.7,0,5.5,1,20.8,2,41.6,3.1,62.4.3,6.2,1.6,7.5,7.7,8.1,1.8.2,3.7.2,5.5.2,25.7-.1,51.3-.3,77-.3,59.6-.1,119.3-.2,178.9-.4,5.4,0,10.7-1.1,16.3-1.7-1-28.4-1.9-56-2.9-83.6ZM980,312v1.3c-5.3,0-10.7,0-16,0-36.7.3-73.3.7-110,1-9.7,0-11.3,1.7-10.9,11.5.7,19.1,1.5,38.3,2.3,57.4.4,9,2.2,10.8,11.2,10.7,45.2-.4,90.4-1.1,135.6-1.4,40.8-.2,81.7,0,122.5,0,4.3,0,8.6-.4,12.9-.8,3.4-.3,5.2-2.5,5-5.7-.9-19.5-1.6-38.9-3-58.4-.6-8.6-5.6-13-14.2-14.1-6.3-.8-12.6-1.4-18.9-1.5-38.8-.1-77.7,0-116.5,0ZM1137.3,522.7c-2.2,0-3.8,0-5.4,0-25.7.2-51.3.5-76.9.6-53.5.3-106.9.4-160.4.7-10.5,0-21,.2-31.5.4-8.2.2-10.1,2-9.8,10.2.7,19.6,1.5,39.3,2.5,58.9.5,9.5,2,10.6,11.6,10.8,1,0,2,0,3,0,23.5-.1,47-.3,70.5-.3,59.3,0,118.6,0,177.9,0,4.3,0,8.7-.2,13-.6,7.2-.7,8.6-2.3,8.4-9.5-.3-12.8-.6-25.6-1.1-38.4-.4-10.8-1.1-21.5-1.7-32.8Z"/>
  <path class="cls-1" d="M1137.2,759.8c-2.3.2-3.7.4-4.9.4-80.8,0-161.6,0-242.4,0-3.9,0-5.7-.9-5.8-5.1-.8-17.5-1.9-34.9-2.7-52.4-.8-17.3-1.6-34.6-2.1-51.9-.2-7.4,1.2-8.7,8.7-8.7,78.1-.1,156.3-.2,234.4-.3,1.3,0,2.7.2,4,.2,5,0,6.9,2.5,7.1,7.5.6,17.8,1.4,35.6,2.1,53.4.6,15,1.2,30,1.8,44.9.2,3.9,0,7.9,0,12ZM1009.4,663.5h0c-5.3-.1-10.7-.1-16-.1-26.2,0-52.3.3-78.5.2-12.8,0-16.4.9-14.8,17,.9,9,1.8,10,10.6,10,62.2,0,124.3,0,186.5,0,3.3,0,6.6-.5,9.9-.7,4.8-.3,6.7-3.1,6.6-7.6-.2-4.3-.7-8.7-.4-13,.3-4.3-1.1-5.8-5.5-5.8-32.8.2-65.7,0-98.5,0ZM1115,712.5h-5.3c-58.6,0-117.3,0-175.9.2-7.5,0-15,0-22.5.2-6,.2-7.8,1.9-8.2,7.7-.3,4.1,0,8.3,0,12.5s2.1,6.8,6.7,6.8c1.5,0,3,.2,4.5.2,61.5,0,123,0,184.4,0,4,0,7.9-.8,11.9-1.3,3.8-.5,5.5-3,5.4-6.6-.2-6.3-.6-12.6-1-19.8Z"/>
  <path class="cls-1" d="M1106.4,772.5c12.7.1,22.9,10.8,22.8,23.5-.1,12.1-8.5,19.6-21.7,19.5-11.5-.1-21.6-11-21.5-23.1.1-11.7,8.7-20,20.3-19.9ZM1116.1,793.4c0-3.8-3.5-7-7.6-6.9-4.7.2-8.9,4.3-9,8.9,0,4,2.7,6.5,7.1,6.4,5-.1,9.6-4.2,9.5-8.4Z"/>
</svg>