<?xml version="1.0" encoding="UTF-8"?>
<svg id="Layer_1" data-name="Layer 1" xmlns="http://www.w3.org/2000/svg" version="1.1" viewBox="0 0 1920 1080">
  <defs>
    <style>
      .cls-1 {
        fill: #020202;
      }

      .cls-1, .cls-2 {
        stroke-width: 0px;
      }

      .cls-2 {
        fill: #030303;
      }
    </style>
  </defs>
  <path class="cls-2" d="M903.9,270.4h51.6c.2,7.2.6,14.4.5,21.6-.9,55.5.2,111,4.8,166.3,3.8,46.1,8.4,92.2,12.9,138.2,2.8,28.5,6,56.9,9.4,85.4.7,5.5,2.5,11,4.8,16.1,4.2,9.1,12,10.7,19.4,4,11.8-10.8,23.3-21.9,34.9-32.8.7-.7,1.5-1.4,2.2-2,15.6-13.5,27.9-13.4,43,.7,9.9,9.2,19.3,18.8,29.2,28,3.4,3.2,7.2,6,11.2,8.3,7.1,4.1,12.4,2.7,15.2-5,2.9-8.2,4.6-16.9,5.7-25.5,3.6-28.9,7-57.8,10-86.8,3.4-32.8,7.1-65.6,9.2-98.5,2.3-36.2,3.6-72.5,4.4-108.8.7-32.5-.2-65,.3-97.5.2-14.2-3.2-13,13.5-13.4,11.2-.3,22.3.1,33.5-.2,4.3-.1,5.5,1.4,5.5,5.4,0,13,.2,26,0,39-.1,22.2-.5,44.3-.6,66.5-.2,41.8-1.9,83.6-7.3,125.1-6.8,53-13.5,105.9-20.4,158.9-1.9,14.7-4,29.3-6.9,43.8-2.5,12.6-8.1,24.1-18,32.6-12,10.3-26.8,11.4-41.9,11-19.1-.5-32.2-11.9-44.8-24.4-3.9-3.9-8-7.6-12.2-11-6.9-5.7-12-5.7-18.6.3-6.4,5.8-12.5,12-18.7,18-18.6,18-48.7,22.9-71.3,11.6-10.1-5-16.3-13.4-20.5-23.5-5.3-12.6-7.1-25.9-8.8-39.3-3.4-27.4-7.1-54.8-10.4-82.2-3-24.6-5.8-49.2-8.5-73.9-3.3-29.8-6.6-59.6-9.3-89.4-1.6-17.2-2.6-34.6-2.8-51.9-.4-36.8-.1-73.7-.1-110.5,0-1.3.1-2.6.2-4.1Z"/>
  <path class="cls-1" d="M823.7,514c0,41.1.3,82.3-.1,123.4-.2,19.6-.2,39.3-7.4,58.1-13.5,35.6-39.1,55.7-76.7,60.4-16.8,2.1-33.5,1.8-50.2-1.6-34.7-7.1-56.7-28.2-68.4-60.9-7.2-20-8.7-40.9-9-61.9-.7-47.8-1.4-95.6-2.1-143.4-.5-33.3-1.2-66.6-1.3-99.9,0-23.9,2.3-47.6,12.5-69.7,14.5-31.7,39.2-49.5,74.2-52.6,18-1.6,35.9-1.8,53.6,2.5,30.3,7.4,50.2,26.6,62.2,54.9,8.5,20.1,10.5,41.4,10.9,63,.8,42.6,1.9,85.2,2.9,127.8-.3,0-.6,0-.9,0ZM661,508.1h.4c.8,40.6,1.7,81.2,2.2,121.8.3,17.9,1.5,35.6,8.7,52.3,5.9,13.6,14.7,24.7,29.9,27.4,9.4,1.6,19.2,1.3,28.8.6,13.7-1,23.3-8.8,29.9-20.6,7.1-12.8,10.7-26.6,10.7-41.1.2-38-.1-75.9-.4-113.9-.3-43.1-1-86.2-1.3-129.4-.1-17.4-1.6-34.5-5.2-51.5-5.4-25.4-19-38.9-43.8-41.2-26.1-2.5-46.4,7.5-54.4,35.3-2.7,9.3-4.4,19.2-4.8,28.9-.9,23.4-.7,46.9-.9,70.4-.1,20.3,0,40.7,0,61Z"/>
  <path class="cls-2" d="M1363.4,749.9h-50.9c1.4-160,2.9-319.9,4.3-480.6,3-.4,6.2-1.1,9.4-1.1,40,0,80,0,120,.1,32.8.1,57.2,19.8,67.6,54,8,26.2,10.5,53.1,10.2,80.3-.2,21.6-.4,43.3-.7,65-.5,48.8-1.1,97.6-1.7,146.4-.3,23.2-.8,46.3-.9,69.4-.2,21.6,0,43.3,0,65.2h-51c0-11.3-.1-22.6,0-33.8.4-30,.8-59.9,1.3-89.9.8-49.5,1.9-98.9,2.2-148.4.2-32.4-.3-64.9-1.7-97.4-.5-12.1-3.8-24.3-7.4-36-5.8-18.9-19.5-27.9-39.7-27.8-17.2,0-34.3.4-51.5.2-4.2,0-5,1.4-5,5.1-.3,42.5-.8,84.9-1.3,127.4-.6,56.3-1.3,112.6-2,168.9-.4,35.1-.9,70.3-1.3,105.4,0,9.1,0,18.2,0,27.5Z"/>
  <path class="cls-2" d="M1624.7,266.1h50.5c.2,3.5.4,7,.5,10.4.4,19.6,0,39.4,1.4,58.9,2,26.5,13.6,49.5,30.1,70,5.3,6.6,10,6.4,14.9-.5,19.3-27.7,34.4-57,34.8-91.8.2-13.3.6-26.6.9-40,.1-7.5,1.4-8.8,8.7-8.9,13.6,0,27.2,0,41.2,0,3.1,67.8-14.8,128-61,178.7,9,12.8,17.9,25.5,26.8,38.2,13.6,19.3,22.8,40.3,24.1,64.1,1,19.3,1,38.6,1,58,0,19.5-.5,39-.9,58.5-.6,26.5-1.3,52.9-2,79.4,0,2.1-.6,4.3-1,7h-50.3c0-10.3-.2-20.2,0-30.1.5-23.6,1.3-47.3,1.9-70.9.6-26.5,1.1-53,1.6-79.4.5-31.4-8.8-59.3-30-82.9-5.2-5.8-7.3-6-12.9-.5-24.1,23.8-35.9,52.7-36.6,86.3-1,49.6-2,99.3-3,148.9-.2,7.7-.5,15.3-.6,23,0,3.1-.9,5-4.5,5-13.3,0-26.6.3-39.9.4-4.1,0-5.7-2-5.5-6.3.8-28.6,1.3-57.3,2-85.9.6-24.8,1-49.6,2.2-74.4,1.2-24.3,3.2-48.5,13.8-71,9.6-20.2,23-37.7,38-54.1,8.3-9.1,8.2-9,.7-18.4-21.2-26.7-37.8-55.7-42.9-89.9-2.4-16.1-3-32.5-3.8-48.7-.6-10.8-.1-21.6-.1-32.9Z"/>
  <path class="cls-2" d="M111.9,323.6v-46.1c1.7-.3,3.3-.9,4.8-.8,19,.3,38-.2,56.9,1.3,38.8,3.1,63.6,24.2,74.1,61.9,5.4,19.2,6.8,39,7.6,58.8.5,12.6,1.1,25.3,1.2,37.9.1,15.6,5.6,29.2,13.8,42.1,7.5,11.6,14.5,23.5,22.3,34.9,16,23.2,23.8,48.7,24.8,76.8,1,29.3,2.2,58.7-2.8,87.7-1.8,10.2-4.6,20.5-8.6,30.1-10.8,25.9-31.6,39-58.7,41.8-18.5,1.9-37.2,2-55.9,2.3-19.5.3-39,0-58.5,0-1.6,0-3.3-.2-5.3-.3-.5-14.1-1.1-28-1.6-42.5,3.6-.4,7-1,10.4-1,26.5-.1,53,.1,79.5-.3,15.1-.2,29-4.2,38.7-17.1,6.3-8.4,8.7-18.3,9.9-28.4,3.7-29.7,3.5-59.5-.9-89.1-2.7-18.3-11.9-34.1-21.6-49.4-7.3-11.5-14.9-22.9-22.1-34.5-11.8-19-14.9-40.2-15.5-62.1-.6-21.9-.1-44-5.7-65.5-1-4-2.2-8-3.6-11.9-6.3-16.6-18.7-25.1-36.2-25.8-13.3-.6-26.6-.4-40-.6-2.3,0-4.6,0-7.1,0Z"/>
  <path class="cls-2" d="M560.7,750c-2.2.4-3.9,1-5.7,1-15.8.1-31.7.2-47.5.1-5.9,0-9.1-4.1-11.9-8.7-12.4-20.3-24.9-40.5-37.4-60.8-16.1-26.2-32.4-52.3-48.4-78.6-8.1-13.2-14-27.2-14.9-42.9-1.2-21.5,7.3-39.1,22-54.2,13.5-13.9,27-27.6,40.2-41.7,20.6-22,27.7-48.8,26.4-78.1-.4-10.1-1.7-20.3-3.8-30.1-4.8-22.7-15.6-32.4-38.7-33.6-22.6-1.2-45.2-.8-67.9-1.2-3.6,0-7.3-.4-11.4-.6,0-14.7,0-29,.2-43.3,0-1,2.9-2.7,4.5-2.8,9.6-.3,19.3-.4,29-.3,21,.2,42,.2,62.9.9,37.6,1.1,63.1,21.9,71.8,58.7,8.6,36.2,8.1,72.2-2.3,108-5.1,17.7-15.7,32.2-27.8,45.7-14.2,15.8-28.7,31.5-43.4,46.9-10,10.5-12.9,22.4-6.3,35.1,8.3,16.1,17.5,31.7,27,47.1,27.3,44,54.9,87.7,82.3,131.6.3.4.4.9.9,2Z"/>
</svg>