<svg height="16" viewBox="0 0 16 16" width="16" xmlns="http://www.w3.org/2000/svg"><path d="m0 0h16v16h-16z" fill="none"/><path d="m8 0c-4.419 0-8 3.581-8 8s3.581 8 8 8 8-3.581 8-8-3.581-8-8-8zm4.244 12.244c-1.135 1.131-2.641 1.756-4.244 1.756s-3.109-.625-4.244-1.756c-1.131-1.135-1.756-2.641-1.756-4.244s.625-3.109 1.756-4.244c1.135-1.131 2.641-1.756 4.244-1.756s3.109.625 4.244 1.756c1.131 1.135 1.756 2.641 1.756 4.244s-.625 3.109-1.756 4.244zm-1.46-7.328-3.768 4.187-1.754-1.731-1.406 1.422 3.244 3.206 5.169-5.747z"/></svg>