<svg fill="none" height="24" viewBox="0 0 24 24" width="24" xmlns="http://www.w3.org/2000/svg"><g fill="#292d32"><path d="m21.2502 18.4701-1.65.39c-.37.09-.66.37-.74.74l-.35 1.47c-.19.8-1.21 1.05-1.74.42l-2.99-3.44c-.24-.28-.11-.72.25-.81 1.77-.43 3.36-1.42 4.53-2.83.19-.23.53-.26.74-.05l2.22 2.22c.76.76.49 1.71-.27 1.89z"/><path d="m2.69919 18.4701 1.65.39c.37.09.66.37.74.74l.35 1.47c.19.8 1.21 1.05 1.74.42l2.99001-3.44c.24-.28.11-.72-.25001-.81-1.77-.43-3.36-1.42-4.53-2.83-.19-.23-.53-.26-.74-.05l-2.22 2.22c-.76.76-.49 1.71.27 1.89z"/><path d="m12 2c-3.87 0-7 3.13-7 7 0 1.45.43 2.78 1.17 3.89 1.08 1.6 2.79 2.73 4.78 3.02.34.06.69.09 1.05.09s.71-.03 1.05-.09c1.99-.29 3.7-1.42 4.78-3.02.74-1.11 1.17-2.44 1.17-3.89 0-3.87-3.13-7-7-7zm3.06 6.78-.83.83c-.14.14-.22.41-.17.61l.24 1.03c.19.81-.24 1.13-.96.7l-1-.59c-.18-.11-.48-.11-.66 0l-1 .59c-.72.42-1.15.11-.96-.7l.24-1.03c.04-.19-.03-.47-.17-.61l-.85-.83c-.49-.49-.33-.98.35-1.09l1.07-.18c.18-.03.39-.19.47-.35l.59-1.18c.32-.64.84-.64 1.16 0l.59 1.18c.08.16.29.32.48.35l1.07.18c.67.11.83.6.34 1.09z"/></g></svg>